<?xml version="1.0" encoding="utf-8"?>
<!-- Generator: Adobe Illustrator 16.0.4, SVG Export Plug-In . SVG Version: 6.00 Build 0)  -->
<!DOCTYPE svg PUBLIC "-//W3C//DTD SVG 1.1//EN" "http://www.w3.org/Graphics/SVG/1.1/DTD/svg11.dtd">
<svg version="1.1" id="Layer_1" xmlns="http://www.w3.org/2000/svg" xmlns:xlink="http://www.w3.org/1999/xlink" x="0px" y="0px"
	 width="485.326px" height="115.882px" viewBox="0 0 485.326 115.882" enable-background="new 0 0 485.326 115.882"
	 xml:space="preserve">
<g>
	<g>
		<g>
			<path fill="#4F2683" d="M122.331,73.817c-12.865,0-14.76-9.805-14.76-24.832v-0.797h33.107c0-13.363-7.404-22.539-21.24-22.539
				c-15.09,0-23.236,11.631-23.236,25.629c0,14.596,7.645,25.629,23.139,25.629c9.588,0,17.369-3.623,21.439-14.217l-2.336-0.762
				C135.632,68.545,130.935,73.817,122.331,73.817z M107.661,42.844c0.543-7.434,3.254-14.631,11.08-14.631
				c8.332,0,10.164,6.51,10.348,13.4c0.016,0.641,0.023,2.871,0.023,3.482h-21.541C107.571,44.428,107.612,43.542,107.661,42.844z"
				/>
			<path fill="#4F2683" d="M150.988,102.963c-3.483-1.117-4.578-1.742-4.578-3.596c0-1.52,1.341-2.703,3.551-2.703
				c2.078,0,3.529,0.85,4.354,2.994l1.341-0.627c-0.782-2.211-2.567-3.797-5.673-3.797c-3.015,0-5.136,1.877-5.136,4.244
				c0,2.725,1.809,3.686,5.359,4.801c3.506,1.117,4.332,1.988,4.332,3.707c0,1.855-1.607,2.992-4.086,2.992
				c-2.323,0-3.997-1.182-4.733-3.482l-1.408,0.512c0.781,2.682,2.971,4.377,6.075,4.377c3.305,0,5.739-1.762,5.739-4.51
				C156.126,105.196,154.429,104.057,150.988,102.963z"/>
			<path fill="#4F2683" d="M135.421,100.016c0-2.904-2.055-4.467-5.74-4.467h-5.538v16.523h1.563v-7.412h4.109l4.042,7.412h1.786
				l-4.177-7.592C133.857,104.036,135.421,102.696,135.421,100.016z M129.569,103.254h-3.863V97h3.841
				c2.769,0,4.287,0.805,4.287,3.08C133.834,102.473,132.294,103.254,129.569,103.254z"/>
			<path fill="#4F2683" d="M104.941,6.368V3.923H84.669v2.445h8.964l-2.344,8.149L77.233,57.51h-0.202L61.239,14.315l-2.753-7.947
				h10.083V3.923H37.392v2.445h8.661l5.096,13.752L38.208,57.51h-0.203L22.416,14.518l-2.749-8.149h8.964V3.923H0v2.445h6.929
				l3.666,9.678l22.312,60.725h2.042c0,0,13.655-39.127,18.03-51.761l19.259,51.761h2.143L94.55,15.333l3.158-8.964H104.941z"/>
			<path fill="#4F2683" d="M32.334,106.268c0,2.748-1.361,4.668-4.422,4.668c-3.08,0-4.442-2.01-4.442-4.713V95.549h-1.587v10.941
				c0,3.283,1.943,5.873,6.007,5.873c4.021,0,6.03-2.635,6.03-5.918V95.549h-1.586V106.268z"/>
			<path fill="#4F2683" d="M167.552,74.164c-9.754,0-15.487-6.346-17.62-15.657h-2.428l3.266,17.87
				c1.057-1.236,2.443-1.686,3.834-1.686c2.812,0,6.375,2.153,12.707,2.153c10.166,0,17.848-5.658,17.848-15.295
				c0-19.27-27.648-14.182-27.648-26.636c0-3.964,2.822-6.895,7.919-6.895c8.081,0,12.599,5.706,14.541,12.485h2.394l-2.761-15.271
				c-0.925,1.039-2.156,1.609-3.665,1.609c-3.361,0-5.431-1.392-10.569-1.392c-8.795,0-15.611,4.78-15.611,13.456
				c0,17.761,27.224,13.97,27.224,26.733C176.981,71.42,172.772,74.164,167.552,74.164z"/>
			<polygon fill="#4F2683" points="56.095,109.17 56.05,109.17 46.938,95.549 45.241,95.549 45.241,112.073 46.737,112.073 
				46.737,98.028 46.782,98.028 56.184,112.073 57.591,112.073 57.591,95.549 56.095,95.549 			"/>
			<rect x="69.895" y="95.549" fill="#4F2683" width="1.586" height="16.523"/>
			<polygon fill="#4F2683" points="88.007,109.975 87.962,109.975 83.026,95.549 81.396,95.549 87.203,112.141 88.699,112.141 
				94.505,95.549 92.965,95.549 			"/>
			<polygon fill="#4F2683" points="105.695,104.057 111.881,104.057 111.881,102.627 105.695,102.627 105.695,97.024 
				113.981,97.024 113.981,95.549 104.11,95.549 104.11,112.073 114.449,112.073 114.449,110.624 105.695,110.624 			"/>
			<rect x="166.155" y="95.549" fill="#4F2683" width="1.584" height="16.523"/>
			<path fill="#4F2683" d="M317.9,95.481l-6.172,16.592h1.547l1.868-5.083h7.32l1.867,5.083h1.66l-6.172-16.592H317.9z
				 M315.66,105.583l3.112-8.445h0.063l3.107,8.445H315.66z"/>
			<polygon fill="#4F2683" points="176.388,97.024 181.724,97.024 181.724,112.073 183.31,112.073 183.31,97.024 188.647,97.024 
				188.647,95.549 176.388,95.549 			"/>
			<path fill="#4F2683" d="M314.994,32.391c0-3.951-2.924-6.941-8.348-6.941c-8.113,0-12.139,7.279-14.232,13.062h-0.129V25.047
				c-1.613,1.324-3.246,2.6-7.551,2.6c-3.128,0-11.196,0-11.196,0v2.492h8.575v43.078h-8.575v2.494h27.024v-2.494h-8.277v-21.24
				c0-11.301,5.549-23.573,12.678-23.573c0.531,0,0.891,0.062,1.183,0.199c-1.224,0.984-2.007,2.491-2.007,4.183
				c0,3.136,2.406,5.372,5.373,5.372C312.744,38.157,314.994,35.469,314.994,32.391z"/>
			<path fill="#4F2683" d="M340.851,95.549h-4.178v16.523h4.178c5.313,0,8.217-2.834,8.217-8.283S346.231,95.549,340.851,95.549z
				 M341.08,110.69h-2.857V96.978h2.812c4.144,0,6.487,2.112,6.487,6.811C347.522,108.598,345.202,110.69,341.08,110.69z"/>
			<path fill="#4F2683" d="M363.936,95.481l-6.172,16.592h1.547l1.868-5.083h7.32l1.867,5.083h1.66l-6.172-16.592H363.936z
				 M361.695,105.583l3.112-8.445h0.063l3.107,8.445H361.695z"/>
			<path fill="#4F2683" d="M368.467,73.217V39.709c0-9.971-4.887-14.262-14.66-14.262c-8.177,0-14.159,3.992-17.252,10.773h-0.2
				V25.243c-1.344,1.105-3.16,2.404-7.591,2.404c-2.889,0-10.555,0-10.555,0v2.492h7.975v43.078h-8.575v2.494h26.625v-2.494h-7.879
				V47.29c0-9.273,4.777-18.252,13.799-18.252c5.07,0,8.142,2.863,8.142,10.371v33.809h-7.878v2.494h25.928v-2.494H368.467z"/>
			<polygon fill="#4F2683" points="299.689,109.17 299.645,109.17 290.532,95.549 288.835,95.549 288.835,112.073 290.332,112.073 
				290.332,98.028 290.377,98.028 299.778,112.073 301.185,112.073 301.185,95.549 299.689,95.549 			"/>
			<path fill="#4F2683" d="M213.364,72.91c-3.8,0-5.374-2.383-5.374-8.266V30.139h12.271v-2.492H207.99V11.174h-2.105
				c-1.363,10.634-6.699,16.076-16.36,17.002v1.961l-0.002,0.002h0.002h8.08v34.104c0,6.381,1.242,12.465,11.614,12.465
				c6.538,0,10.506-3.016,12.576-6.934l0.796-1.59l-2.161-1.029C219.128,70.054,217.061,72.91,213.364,72.91z"/>
			<path fill="#4F2683" d="M270.097,95.481l-6.172,16.592h1.547l1.868-5.083h7.32l1.867,5.083h1.66l-6.172-16.592H270.097z
				 M267.856,105.583l3.112-8.445h0.063l3.107,8.445H267.856z"/>
			<polygon fill="#4F2683" points="202.211,103.432 197.565,95.549 195.846,95.549 201.385,104.853 201.385,112.073 202.97,112.073 
				202.97,104.853 208.53,95.549 206.833,95.549 			"/>
			<path fill="#4F2683" d="M224.562,102.206c-0.973,0-1.674,0.699-1.674,1.686c0,0.973,0.701,1.674,1.674,1.674
				c0.987,0,1.687-0.701,1.687-1.674C226.248,102.905,225.549,102.206,224.562,102.206z"/>
			<path fill="#4F2683" d="M248.479,110.958c-3.217,0-5.314-2.68-5.314-7.258c0-4.242,2.074-7.012,5.27-7.012
				c2.521,0,3.752,1.361,4.488,3.975l1.52-0.379c-0.781-3.061-2.637-5.049-5.984-5.049c-4.133,0-6.879,3.506-6.879,8.51
				c0,5.271,2.701,8.641,6.879,8.641c3.304,0,5.449-2.029,6.252-5.291l-1.52-0.334C252.478,109.528,250.937,110.958,248.479,110.958
				z"/>
			<path fill="#4F2683" d="M269.705,62.69l-2.336-0.762c-2.812,6.617-7.511,11.889-16.114,11.889
				c-12.864,0-14.759-9.805-14.759-24.832v-0.797h33.106c0-13.363-7.404-22.539-21.239-22.539c-15.09,0-23.236,11.631-23.236,25.629
				c0,14.596,7.645,25.629,23.139,25.629C257.853,76.907,265.635,73.284,269.705,62.69z M236.586,42.844
				c0.542-7.434,3.254-14.631,11.08-14.631c8.331,0,10.163,6.51,10.347,13.4c0.017,0.641,0.023,2.871,0.023,3.482h-21.54
				C236.496,44.428,236.536,43.542,236.586,42.844z"/>
		</g>
	</g>
	<g>
		<g>
			<path fill="#FFFFFF" d="M485.323,47.945l-0.006-41.667C474.535,2.466,457.611,0,438.525,0c-18.719,0-35.383,2.454-46.16,6.277
				l-0.005,42.271c0,6.231-0.282,17.261,5.383,30.466c7.035,16.396,20.652,28.727,40.087,36.455l1.01,0.412l0.999-0.408
				c19.449-7.732,33.067-20.062,40.102-36.459C485.609,65.81,485.323,53.92,485.323,47.945z"/>
			<path fill="#4F2683" d="M485.323,47.945l-0.006-41.667C474.535,2.466,457.611,0,438.525,0c-18.719,0-35.383,2.453-46.16,6.277
				l-0.005,42.271c0,6.231-0.282,17.261,5.383,30.466c7.035,16.396,20.652,28.727,40.087,36.455l1.01,0.412l0.999-0.408
				c19.449-7.732,33.067-20.062,40.102-36.459C485.609,65.81,485.323,53.92,485.323,47.945z M449.007,93.529
				c-0.211,0.062-0.463,0.156-0.661,0.254c-0.132,0.062-0.21,0.104-0.226,0.211c-0.012,0.074,0.07,0.182,0.115,0.232
				c-0.12,0.443-1.176,0.389-1.523,0.51c-0.297,0.102-0.644,0.432-0.841,0.643c-0.199,0.219-0.131,0.164-0.451,0.229
				c-0.568,0.117-0.443,0.637-0.268,1.049c0.169,0.414,0.466,0.746,0.844,0.992c0.133,0.09,0.738,0.322,1.063,0.322
				c-0.312,0.34-0.753,0.256-1.149,0.422c-0.222,0.09-0.421,0.215-0.666,0.27c-0.327,0.07-0.493,0.049-0.768,0.004
				c-0.428-0.082-0.765-0.062-1.12-0.025c-0.268,0.027-0.496-0.004-0.728-0.135c-0.104-0.055-0.307-0.205-0.407-0.223
				c-0.326-0.051-0.064,0.428,0.003,0.596c-0.442,0.422-1.449-0.16-1.85-0.406c-0.352-0.213-0.536-0.707-0.938-0.836
				c-0.029,0.426-0.009,0.85,0.009,1.273c0.051,1.297,0.08,2.592,0.12,3.885c0.022,0.762,0.042,1.521,0.066,2.277h-1.426
				l0.168-7.492c-0.453,0.029-0.633,0.449-1.003,0.611c-0.232,0.1-0.47,0.053-0.687,0.188c-0.229,0.145-0.319,0.336-0.583,0.461
				c-0.222,0.096-0.498,0.135-0.742,0.129c-0.306-0.002-0.644-0.059-0.812-0.23c0.151-0.273,0-0.555-0.19-0.658
				c-0.222-0.115-0.527,0.059-0.718,0.105c-0.993,0.25-2.157-0.361-3.06-0.701c0,0,2.183-0.369,2.183-1.643
				c0-0.354-0.165-0.643-0.434-0.869c-0.254-0.209-0.735-0.457-1.067-0.506c-0.545-0.078-0.916,0.062-1.249-0.07
				c0.048-0.174-0.246-0.414-0.475-0.578c-0.218-0.152-0.488-0.23-0.724-0.355c-0.437-0.225-1.09-0.631-0.908-1.201
				c0.35,0.18,0.688,0.219,1.006,0.053c0.251-0.137,0.34-0.334,0.34-0.631c-0.007-0.4-0.447-0.67-0.604-0.971
				c-0.124-0.244-0.235-0.475-0.463-0.65c-0.204-0.16-0.546-0.213-0.556-0.518c0.419,0.164,0.534-0.205,0.287-0.48
				c-0.278-0.311-0.643-0.457-0.854-0.844c-0.184-0.344-0.319-0.75-0.325-1.146c-0.003-0.115,0.018-0.451,0.184-0.482
				c0.157-0.033,0.21,0.174,0.274,0.273c0.261,0.383,0.644,0.568,1.032,0.764c0.482,0.24,0.672,0.371,1.212,0.469
				c1.055,0.188,1.724,0.033,2.335-0.527c0.104-0.098,0.364-0.283,0.49-0.295c0.212,0.301,0.769,0.881,1.313,1.039
				c0.404,0.113,0.866,0.689,1.075,0.873c0.728,0.635,1.176,0.273,1.173-0.336c-0.005-0.508-0.192-1.174-0.303-1.658
				c-0.176-0.791-0.329-1.178-0.438-1.998c-0.064-0.502-0.342-0.926-0.529-1.275c-0.185-0.35-0.448-1.254,0.212-0.936
				c0.272,0.129,0.683,0.375,1.012,0.33c0.773-0.107,0.869-0.951,1.018-1.582c0.082-0.328,0.083-0.596,0.203-0.922
				c0.068-0.191,0.159-0.299,0.257-0.303c0.033,0.098,0.139,0.273,0.306,0.273c0.299,0,0.553-0.514,0.628-0.816
				c0.061-0.256,0.114-0.562,0.188-0.793c0.137-0.395,0.168-0.859,0.379-1.297c0.079,0.293,0.21,0.814,0.281,0.994
				c0.178,0.465,0.338,0.932,0.614,1.318c0.233,0.33,0.53,0.432,0.9,0.238c0.183,0.438,0.183,1.877,0.559,2.549
				c0.224,0.398,0.5,0.541,0.838,0.541c0.304,0,0.519-0.094,0.737-0.223c0.265-0.158,0.56-0.359,0.757-0.359
				c0.087,0,0.143,0.045,0.143,0.129c0,0.305-0.468,1.115-0.529,1.289c-0.145,0.395-0.37,0.834-0.489,1.23
				c-0.095,0.33-0.195,0.746-0.266,1.094c-0.078,0.389-0.146,0.838-0.172,1.449c-0.02,0.363,0.008,1.016,0.282,1.209
				c0.397,0.271,0.898-0.266,1.223-0.516c0.388-0.301,0.72-0.592,1.012-0.992c0.219-0.295,0.646-1.066,1.057-1.027
				c-0.005,0.309,0.435,0.744,1.091,0.846c0.402,0.061,0.729-0.021,0.964-0.195c0.306-0.223,0.326-0.211,0.673-0.084
				c0.746,0.285,1.98-0.689,2.422-1.041c0.15,0.16,0.013,0.451-0.181,0.742c-0.357,0.533-0.755,0.703-0.763,1.102
				c-0.008,0.35-0.433,1.004-0.403,1.395c-0.129,0.225-0.54,0.471-0.728,0.625c-0.546,0.463-0.878,0.994-0.68,1.723
				c0.17,0.631,0.689,0.936,1.176,0.936c0.489,0,0.806-0.328,0.968-0.25c0.096,0.061-0.143,0.361-0.238,0.441
				C449.735,93.265,449.308,93.437,449.007,93.529z M476.76,34.551h-75.79l-4.845-5.084l9.672,3.219
				c-0.795-2.409-3.006-3.243-4.433-5.304c-0.851-1.222-1.136-2.427-1.042-3.68c0.26,0.446,0.726,1.059,1.457,1.564
				c0.698,0.482,1.639,0.858,2.917,1.134c2.283,0.493,3.46,1.214,4.466,2.143l-4.95-8.854l8.527,5.498
				c-0.354-2.535-2.104-3.849-2.974-6.192c-0.517-1.395-0.503-2.647-0.1-3.836c0.139,0.495,0.437,1.207,1.021,1.876
				c0.557,0.638,1.37,1.237,2.542,1.824c2.161,1.08,3.122,2.104,3.874,3.302l-2.628-9.926l6.856,7.4
				c0.274-2.49-1.073-4.207-1.331-6.677c-0.154-1.481,0.159-2.701,0.843-3.754c0.013,0.517,0.128,1.279,0.525,2.071
				c0.379,0.757,1.021,1.542,2.012,2.397c1.888,1.646,2.542,2.904,2.971,4.307l-0.072-10.417l4.771,8.829
				c0.934-2.239-0.051-4.297,0.312-6.739c0.216-1.472,0.86-2.59,1.788-3.437c-0.116,0.5-0.198,1.268-0.009,2.133
				c0.178,0.829,0.605,1.747,1.352,2.823c1.456,2.108,1.755,3.505,1.811,5.006l0.019-0.002l2.54-10.206l2.438,9.792
				c1.472-2.018,1.094-4.308,2.064-6.598c0.581-1.37,1.472-2.185,2.581-2.773c-0.241,0.455-0.511,1.177-0.545,2.064
				c-0.033,0.847,0.15,1.841,0.601,3.071c0.859,2.34,0.811,3.749,0.51,5.177l4.94-9.141l-0.071,10.05
				c1.916-1.508,2.052-3.897,3.551-5.861c0.905-1.181,1.992-1.745,3.216-2.04c-0.349,0.383-0.786,1.015-1.043,1.864
				c-0.241,0.814-0.312,1.823-0.181,3.125c0.256,2.54-0.153,3.91-0.826,5.245l0.007,0.002l7.145-7.714l-2.562,9.687
				c2.148-1.025,2.926-3.081,4.853-4.601c1.166-0.921,2.351-1.373,3.604-1.354c-0.429,0.286-1.011,0.789-1.471,1.551
				c-0.436,0.724-0.754,1.684-0.95,2.979c-0.382,2.513-1.108,3.741-2.087,4.863l0.042,0.031l8.841-5.702l-4.884,8.73
				c2.38-0.339,3.53-2.241,5.757-3.225c1.359-0.601,2.655-0.757,3.868-0.429c-0.488,0.171-1.179,0.513-1.812,1.136
				c-0.603,0.596-1.149,1.447-1.661,2.651c-0.994,2.328-1.995,3.331-3.216,4.173l0.052,0.064l9.98-3.321L476.76,34.551z M437.467,56
				c-0.132-0.228-0.656-1.409-3.558-1.409h-8.487V40.875h0.624v13.091h7.759c0.589,0,1.102,0.033,1.538,0.104
				c1.568,0.248,2.22,0.871,2.523,1.309l1.987,0.002c0.296-0.443,0.923-1.063,2.476-1.311c0.435-0.07,0.941-0.104,1.532-0.104h7.779
				V40.92h0.624v13.671h-8.506c-2.899,0-3.385,1.192-3.487,1.409H437.467z M438.501,53.67v0.668
				c-1.184-2.226-6.577-1.862-11.164-1.4V40.221c2.471-0.022,4.907-0.361,6.809-0.361c2.412,0,4.068,0.367,4.355,1.767v11.43
				c-1.468-1.746-5.856-1.582-10.447-1.141v0.366C432.6,51.844,437.396,51.696,438.501,53.67z M428.899,48.663
				c0.545-0.01,1.117-0.026,1.566-0.026c0.589,0,1.078,0.016,1.562,0.026v-0.26h-0.249c-0.77,0-0.827-0.077-0.827-0.587V45.61
				c0-0.605,0.093-0.646,0.604-0.646h0.473v-0.26c-0.499,0.009-1.027,0.027-1.562,0.027c-0.492,0-1.038-0.019-1.566-0.027v0.26
				h0.478c0.509,0,0.605,0.041,0.605,0.646v2.205c0,0.51-0.062,0.587-0.832,0.587h-0.251V48.663z M434.364,45.966
				c-0.594-0.356-1.01-0.873-1.01-1.538c0-0.571,0.416-1.59,1.762-1.59c1.072,0,1.538,0.675,1.538,1.279
				c0,0.63-0.223,1.001-1.122,1.416c0.869,0.442,1.26,0.916,1.26,1.598c0,0.943-0.742,1.635-1.873,1.635
				c-1.021,0-1.669-0.701-1.669-1.432C433.25,46.528,433.882,46.13,434.364,45.966z M435.878,47.546c0-0.5-0.234-0.821-1.273-1.451
				c-0.459,0.242-0.698,0.718-0.698,1.16c0,0.81,0.569,1.2,1.031,1.2C435.583,48.455,435.878,47.979,435.878,47.546z
				 M435.333,45.412c0.397-0.311,0.665-0.638,0.665-1.2c0-0.647-0.432-1.062-0.933-1.062c-0.57,0-0.882,0.457-0.882,0.94
				C434.184,44.6,434.537,44.946,435.333,45.412z M443.523,39.86c1.905,0,4.305,0.357,6.83,0.361v12.718
				c-4.588-0.462-9.979-0.826-11.166,1.4V53.67c1.072-2.008,5.898-1.832,10.465-1.389v-0.366c-4.607-0.442-9.02-0.628-10.465,1.141
				v-11.43C439.474,40.231,441.125,39.862,443.523,39.86z M440.52,46.141h0.253l0.204-0.538h2.389l-2.326,4.768l0.43,0.119
				l2.907-5.709l-0.07-0.076h-3.566L440.52,46.141z M446.268,45.966c-0.597-0.356-1.011-0.873-1.011-1.538
				c0-0.571,0.414-1.59,1.76-1.59c1.075,0,1.539,0.675,1.539,1.279c0,0.63-0.224,1.001-1.124,1.416
				c0.873,0.442,1.264,0.916,1.264,1.598c0,0.943-0.745,1.635-1.876,1.635c-1.02,0-1.666-0.701-1.666-1.432
				C445.153,46.528,445.786,46.13,446.268,45.966z M447.781,47.546c0-0.5-0.235-0.821-1.272-1.451c-0.457,0.242-0.7,0.718-0.7,1.16
				c0,0.81,0.57,1.2,1.028,1.2C447.484,48.455,447.781,47.979,447.781,47.546z M447.234,45.412c0.397-0.311,0.666-0.638,0.666-1.2
				c0-0.647-0.434-1.062-0.933-1.062c-0.57,0-0.882,0.457-0.882,0.94C446.086,44.6,446.44,44.946,447.234,45.412z M467.201,92.562
				L438.84,69.441L410.48,92.56c-14.637-16.992-14.531-36.601-14.489-44.691l0.005-13.312h0.053l42.791,34.884l42.789-34.884h0.058
				l0.001,13.312C481.734,55.959,481.84,75.57,467.201,92.562z M414.07,80.132c6.036,0.008,10.942-4.914,10.951-10.994
				c0.011-6.082-4.877-11.021-10.916-11.032c-6.033-0.008-10.94,4.913-10.951,10.991C403.145,75.181,408.032,80.119,414.07,80.132z
				 M421.154,64.577c0.023,0.331-0.143,0.887-0.27,1.035c-0.118,0.036-0.428,0.065-0.659,0.081
				c-0.145,0.004-0.185,0.024-0.274,0.173c-0.271,0.462-0.513,0.89-0.799,1.441c-0.062,0.646-0.061,1.274-0.11,2.04
				c-0.02,0.27,0.016,0.628-0.164,0.936c-0.239,0.306-0.5,0.523-0.711,0.672c-0.043,0.027-0.103,0.104,0.079,0.049
				c0.106-0.031,0.613-0.285,0.722-0.321c0.357-0.116,0.769-0.556,1.337-0.005c0.275,0.266,0.691,0.516,1.188,0.854
				c0.184,0.121,0.281,0.098,0.524,0.314c0.199,0.176,0.292,0.562,0.409,0.76c0.303,0.521,0.337,0.842,0.332,0.963
				c-0.196,0.107-0.911,0.113-1.198,0.029c-0.097-0.18-0.089-0.449-0.146-0.588c-0.101-0.256-0.193-0.379-0.326-0.473
				c-0.217-0.154-0.382-0.332-0.607-0.459c-0.55-0.307-0.619-0.385-1.028-0.184c-0.369,0.18-0.949,0.703-1.554,1.021
				c-0.478,0.23-1.784-0.008-2.145-0.332c0.121,0.357,0.855,0.758,1.403,1.018c-0.076,0.191-0.273,1.199-0.674,1.785
				c-0.025-0.141-0.112-0.248-0.24-0.248c-0.37,0-0.299,0.787-0.652,1.191c-0.024-0.125-0.106-0.254-0.254-0.254
				c-0.345,0-0.306,0.74-0.695,1.129c-0.043-0.162-0.137-0.279-0.295-0.279c-0.153,0-0.296,0.15-0.433,0.293
				c-0.468,0.502-0.688,0.791-1.133,1.26c-1.499-0.09-3.713-1.127-4.5-2.072c1.421-1.518,2.696-3.041,3.321-3.48
				c0.301-0.896,1.192-2.791,1.521-3.666c-0.042-0.088-0.086-0.165-0.134-0.251c-0.221,0.126-0.482,0.155-0.595,0.095
				c0.094-0.244,0.101-0.631-0.005-0.932c-0.157,0.091-0.385,0.143-0.546,0.076c0.099-0.294,0.118-0.637,0.023-0.917
				c0,0-0.002-0.003-0.006-0.007c-0.204,0.092-0.395,0.123-0.541,0.068c0.085-0.33,0.165-0.643,0.064-1.059
				c-0.01-0.029-0.023-0.059-0.032-0.09c-0.271,0.139-1.225,0.311-1.442,0.225c-0.135-0.109,0.683-0.939,1.368-1.629
				c-0.647,0.286-1.493,0.592-2.785,0.85c-0.738,0.146-2.279,0.42-3.374,0.222c-0.185-0.031-0.142-0.272,0.034-0.273
				c0.574-0.002,1.354-0.032,1.922-0.174c0.152-0.035,0.394-0.167-0.046-0.242c-0.465-0.083-1.319-0.222-1.744-0.364
				c-0.151-0.051-0.07-0.23,0.058-0.221c0.523,0.039,1.145,0.148,1.591,0.166c0.262,0.007,0.377-0.025,0.18-0.194
				c-0.119-0.101-0.487-0.335-0.861-0.558c-0.084-0.049-0.07-0.163,0.031-0.18c0.296-0.05,1.46,0.678,2.24,0.891
				c0.176,0.05,0.323,0.08,0.47,0.055c0.157-0.029,0.183-0.121,0.17-0.188c-0.032-0.186-0.801-0.551-1.175-0.799
				c-0.154-0.102,0.007-0.219,0.169-0.172c0.417,0.12,1.366,0.621,1.798,0.675c0.345,0.041,0.468-0.053,0.451-0.149
				c-0.042-0.232-1.357-0.85-1.672-1.08c-0.075-0.059,0.03-0.163,0.119-0.149c0.673,0.083,1.982,0.987,2.561,0.885
				c0.062-0.011,0.145-0.058,0.13-0.142c-0.046-0.26-1.139-0.826-1.408-1.012c-0.134-0.091,0.022-0.184,0.212-0.141
				c0.399,0.092,1.021,0.406,1.396,0.594c0.176,0.09,0.322,0.125,0.506,0.094c0.239-0.044,0.446-0.293,0.349-0.811
				c-0.1-0.529-0.59-0.736-0.932-0.83c-0.382-0.105-0.098-0.283,0.229-0.221c0.628,0.119,1.087,0.416,1.194,0.973
				c0.017,0.09,0.021,0.215,0.025,0.336c0.011,0.307,0.229,0.197,0.411-0.061c0.347-0.483,0.419-0.97,0.36-1.299
				c-0.103-0.57-0.905-0.799-0.905-0.934c0-0.045,0.048-0.084,0.091-0.092c0.31-0.055,1.158,0.309,1.279,0.99
				c0.063,0.361-0.004,0.556-0.064,0.905c-0.014,0.074,0.037,0.137,0.153,0.019c0.404-0.405,0.739-1.137,0.623-1.795
				c-0.125-0.705-0.848-0.949-0.87-1.069c-0.005-0.03,0.054-0.075,0.109-0.087c0.295-0.051,1.095,0.42,1.249,1.197
				c0.136,0.69-0.188,2.119-2.329,3.264c0.899-0.199,1.147-0.17,1.244-0.062c1.034-0.275,1.692-0.486,1.962-0.426
				c0.287,0.445-0.324,0.621-0.332,0.952c0.008,0.32,0.721-0.212,0.597,0.292c-0.217,0.397-0.494,0.426-0.814,0.547
				c-0.164,0.111-0.8,0.566-1.145,0.85c1.03,0.719,2.09,1.812,2.158,1.864c0.063,0.16,0.317,0.612,0.604,1.292
				c0.009,0.012,0.018,0.027,0.023,0.038c0.148-0.44,0.384-1.181,0.487-1.55c0.091-0.321,0.06-0.428,0.163-0.62
				c0.088-0.162,0.378-0.429,0.636-0.813c0.231-0.342,0.604-0.872,0.732-1.073c0.218-0.333,0.434-0.265,0.832-0.374
				C420.521,64.594,420.977,64.566,421.154,64.577z M413.034,64.626c0.052-0.049,0.132-0.128,0.213-0.17
				c0.168-0.094,0.398-0.143,0.551-0.17c0.073,0.113,0.044,0.305-0.084,0.447c-0.134,0.154-0.28,0.082-0.418,0.019
				c-0.097-0.046-0.173-0.042-0.212-0.044C413.032,64.71,413.002,64.659,413.034,64.626z M452.614,69.123
				c0.012-6.08,4.915-11,10.95-10.993c6.038,0.013,10.925,4.95,10.913,11.032c-0.011,6.078-4.914,11-10.949,10.99
				C457.491,80.142,452.604,75.078,452.614,69.123z M468.578,61.623c0.066,0.082,0.109,0.184,0.11,0.297
				c0.007,0.271-0.208,0.498-0.479,0.504c-0.27,0.007-0.494-0.207-0.502-0.479c-0.008-0.25,0.174-0.461,0.415-0.497l-0.562-0.87
				l-0.961,0.418c0.1,0.086,0.164,0.211,0.167,0.354c0.009,0.271-0.206,0.498-0.478,0.506c-0.273,0.006-0.498-0.208-0.506-0.479
				c-0.004-0.21,0.123-0.392,0.305-0.466c-0.287-0.308-0.906-0.768-1.499-0.967c0.456,0.83,0.71,1.863,0.69,2.719
				c0.617-0.041,2.31,0.48,2.954,0.963c0.521-0.771,1.306-1.506,2.179-1.814C469.993,61.669,469.177,61.539,468.578,61.623z
				 M465.508,63.816c-0.075-0.004-0.147-0.014-0.219-0.027c-0.07-0.014-0.098-0.049-0.116-0.066
				c-0.02-0.023-0.083-0.101-0.248-0.111c-0.293-0.018-0.437,0.202-0.455,0.336c-0.012,0.102,0.015,0.203,0.075,0.28
				c0.058,0.065,0.131,0.104,0.216,0.11c0.059,0.006,0.122-0.002,0.186-0.027l0.007-0.006c0.119-0.065,0.181-0.166,0.221-0.272
				c0.018-0.044,0.156-0.101,0.311-0.106c0.029,0,0.053-0.018,0.059-0.047C465.551,63.847,465.536,63.818,465.508,63.816z
				 M462.547,63.974c-0.057,0.104-0.055,0.208-0.033,0.295c0.001,0.01,0.04,0.059,0.045,0.066c-0.039,0.163-0.029,0.376,0.034,0.672
				c0.038,0.172,0.192,0.233,0.483,0.238c0.004,0.072,0.013,0.144,0.027,0.209c0.002,0.008,0.002,0.019,0.005,0.027
				c-0.172,0.047-0.337,0.074-0.487,0.065c-0.455-0.029-0.737-0.28-0.68-0.741c0.012-0.084,0.033-0.152,0.079-0.229
				c0.019-0.039,0-0.07-0.038-0.084c-0.162-0.059-0.631,0.328-0.701,0.859c-0.064,0.51,0.218,0.793,0.64,0.816
				c0.229,0.014,0.544-0.018,0.877-0.148c0.562-0.229,1.203-0.299,1.598,0.096c-0.297-0.056-1.063,0.002-1.282,0.043
				c-0.33,0.061-0.487,0.744-0.125,0.766c0.279,0.016,1.312-0.047,1.37-0.03c-0.105,0.448-0.773,1.013-1.421,1.149
				c-0.398-0.165-1.547-0.123-2.069,0.033c-0.659-0.744-1.137-2.122-1.191-2.577c-0.025-0.209-0.032-0.448,0.075-0.641
				c0.208-0.374,0.627-0.341,0.827-0.664c0.107-0.177,0.06-0.383,0.09-0.575c0.013-0.081,0.185-0.371-0.03-0.467
				c-0.092,0.115-0.24,0.201-0.431,0.143c-0.125-0.043-0.261-0.084-0.396-0.025c-0.227,0.1-0.273,0.383-0.451,0.57
				c-0.093,0.102-0.217,0.056-0.189-0.107c0.045-0.26,0.174-0.504,0.134-0.771c-0.041-0.271-0.241-0.478-0.516-0.629
				c-0.118-0.064-0.253-0.182-0.385-0.215c-0.129-0.033-0.238,0.014-0.243,0.071c0.062,0.046,0.114,0.117,0.118,0.224
				c0.003,0.242-0.256,0.373-0.262,0.602c-0.008,0.349,0.238,0.665,0.262,0.852c0.02,0.139-0.103,0.141-0.185,0.096
				c-0.183-0.098-0.465-0.254-0.727-0.26c-0.216-0.002-0.36,0.17-0.545,0.248c-0.08,0.029-0.424,0.027-0.355,0.189
				c0.188,0.039,0.327,0.159,0.391,0.335c0.048,0.133,0.076,0.241,0.201,0.331c0.21,0.147,0.646,0.111,0.86,0.146
				c0.137,0.026,0.295,0.108,0.336,0.392c0.029,0.196-0.042,0.417-0.135,0.579c-0.166,0.291-0.251,0.594-0.17,0.876
				c0.077-0.106,0.159-0.153,0.248-0.153c0.185,0,0.239,0.212,0.105,0.502c-0.122,0.26-0.197,0.555-0.077,0.893
				c0.054-0.112,0.148-0.184,0.254-0.184c0.165,0,0.258,0.176,0.139,0.498c-0.109,0.297-0.14,0.58-0.019,0.859
				c0.045-0.124,0.145-0.207,0.263-0.207c0.178,0,0.251,0.179,0.316,0.334c0.206,0.506,0.535,0.766,1.355,0.766
				c-0.285,0.54-2.656,0.191-3.619,0.082c-0.208-0.024-0.326-0.082-0.385-0.253c-0.152-0.378,0.201-0.69-0.006-1.089
				c-0.098-0.197-0.257-0.246-0.426-0.355c-0.075-0.049-0.295-0.328-0.438-0.208c0.059,0.147,0.045,0.275-0.121,0.427
				c-0.11,0.096-0.218,0.178-0.239,0.34c-0.03,0.268,0.19,0.521,0.261,0.757c0.062,0.17-0.044,0.241-0.188,0.132
				c-0.227-0.172-0.561-0.578-0.911-0.578c-0.239,0-0.304,0.144-0.494,0.229c-0.085,0.036-0.456,0.076-0.421,0.258
				c0.163,0.028,0.302,0.12,0.345,0.339c0.032,0.145,0.064,0.289,0.193,0.387c0.32,0.244,0.822,0.135,1.119,0.197
				c0.117,0.023,0.136,0.124,0.024,0.192c-0.25,0.147-0.604,0.246-0.728,0.495c-0.102,0.205-0.039,0.438-0.043,0.639
				c-0.003,0.088-0.121,0.369,0.076,0.428c0.099-0.131,0.233-0.23,0.461-0.199c0.149,0.02,0.271,0.086,0.418,0.014
				c0.245-0.127,0.268-0.354,0.398-0.564c0.068-0.109,0.176-0.217,0.351-0.217c0.107,0,0.21,0.023,0.298,0.1
				c0.19,0.17,0.168,0.572,0.75,0.658c-0.032-0.062-0.045-0.141-0.045-0.205c0-0.117,0.067-0.211,0.187-0.211
				c0.132,0,0.226,0.064,0.348,0.27c0.154,0.264,0.319,0.342,0.58,0.373c-0.034-0.064-0.054-0.148-0.054-0.225
				c0-0.121,0.069-0.199,0.18-0.199c0.07,0,0.195,0.025,0.301,0.207c0.168,0.285,0.291,0.42,0.584,0.453
				c-0.086-0.166-0.017-0.389,0.202-0.389c0.223,0,0.781,0.193,1.196,0.365c-0.014,1.068,0.683,2.215,1.714,2.91
				c-0.038-0.201,0.067-0.316,0.219-0.316c0.417,0,0.629,0.986,1.566,1.434c-0.048-0.188,0.053-0.309,0.187-0.309
				c0.111,0,0.259,0.07,0.341,0.113c0.838,0.453,1.729,1.027,2.159,1.402c0.871-0.266,2.293-1.117,3.222-2.074
				c-0.572-0.176-2.154-1.361-2.704-1.93c-0.991-1.021-1.258-2.09-1.258-2.883c0-0.265,0.04-0.514,0.104-0.711
				c0.291,0.173,0.7,0.148,0.949-0.084c-0.454-0.355-0.385-1.055-0.232-1.307c0.25,0.207,0.707,0.144,0.939-0.062
				c-0.345-0.215-0.532-0.775-0.354-1.258c0.191,0.199,0.645,0.214,0.916-0.012c-0.362-0.305-0.548-0.789-0.447-1.358
				c0.167,0.229,0.484,0.261,0.723,0.167c-0.146-0.309-0.156-0.815-0.199-1.152c-0.056-0.464-0.191-0.988-0.345-1.27
				c-0.5-0.429-2.014-1.039-2.961-1.039c-0.129,0-0.255,0.02-0.36,0.043c-0.261,0.061-0.448,0.152-0.459,0.2
				c-0.142,0.221-0.491,0.269-0.804,0.353C463.382,63.676,462.778,63.839,462.547,63.974z M463.998,71.373h-0.08
				c-0.062,0.645-0.418,1.625-0.643,1.98l0.415-0.324l0.267,0.324l0.272-0.324l0.385,0.324
				C464.406,72.98,464.061,72.013,463.998,71.373z M471.296,74.496c0.088-0.129,0.196-0.312,0.196-0.312
				c-0.405-0.617-0.711-1.291-0.656-2.07c0.062-0.846,0.536-1.098,0.903-1.082c0.334,0.012,0.56,0.267,0.578,0.639
				c0.286-0.24,0.407-0.519,0.427-0.803c0.018-0.219-0.092-0.557-0.465-0.651c0.673-0.622,0.605-1.868-0.082-2.345
				c0.096,0.895-0.57,1.51-1.168,2.088c-0.805,0.777-0.908,1.66-0.77,2.578c-0.476-0.922-0.696-1.791-0.635-2.651
				c0.066-0.963,0.553-1.957,1.256-1.907c0.226,0.017,0.461,0.131,0.555,0.334c0.337-0.564,0.098-1.186-0.441-1.232
				c0.553-1.326-0.342-2.658-1.083-2.947c0.192,0.399,0.284,0.803,0.251,1.264c-0.091,1.277-1.203,2.293-1.317,4.188
				c-0.122,2.055,1.021,3.836,2.242,5.197C471.087,74.781,471.191,74.65,471.296,74.496z M466.475,74.187h-0.08
				c-0.06,0.646-0.423,1.627-0.646,1.982l0.414-0.326l0.27,0.326l0.271-0.324l0.387,0.324
				C466.878,75.794,466.536,74.83,466.475,74.187z M464.572,65.873c0.064-0.125,0.101-0.3,0.101-0.4
				c0-0.074-0.008-0.174-0.083-0.251c-0.078-0.077-0.275-0.116-0.476-0.116c-0.205,0-0.422,0.032-0.542,0.109
				c-0.017,0.057-0.042,0.13-0.075,0.207C463.875,65.424,464.277,65.515,464.572,65.873z"/>
		</g>
	</g>
</g>
</svg>
